# Blender 5.1.1
# www.blender.org
mtllib 3d renderer island.mtl
o House
v 0.537636 0.597779 -0.434238
v 0.537636 0.918429 -0.434238
v 0.849754 0.597779 -0.746355
v 0.849754 0.918429 -0.746355
v 0.849754 0.597779 -0.122120
v 0.849754 0.918429 -0.122120
v 1.161872 0.597779 -0.434238
v 1.161872 0.918429 -0.434238
v 0.537636 0.818480 -0.434238
v 0.849754 0.818480 -0.122120
v 0.641675 0.597779 -0.330199
v 0.745715 0.597779 -0.226159
v 0.745715 0.918429 -0.226159
v 0.641675 0.918429 -0.330199
v 0.745715 0.818480 -0.226159
v 0.641675 0.818480 -0.330199
v 0.744018 0.597779 -0.432541
v 0.848058 0.597779 -0.328502
v 0.848058 0.818480 -0.328502
v 0.744018 0.818480 -0.432541
v 0.643594 0.597779 -0.332118
v 0.747634 0.597779 -0.228078
v 0.747634 0.818480 -0.228078
v 0.643594 0.818480 -0.332118
v 0.471442 0.918429 -0.497326
v 0.786665 0.918429 -0.812550
v 0.912842 0.918429 -0.055925
v 0.692142 1.160848 -0.276626
v 1.228066 0.918429 -0.371149
v 1.007366 1.160848 -0.591850
v 1.007366 0.918429 -0.591850
v 0.692142 0.918429 -0.276626
vn 0.7071 -0.0000 -0.7071
vn -0.7071 -0.0000 -0.7071
vn -0.7071 -0.0000 0.7071
vn -0.0000 -1.0000 -0.0000
vn -0.0000 1.0000 -0.0000
vn 0.7071 -0.0000 0.7071
vn 0.4337 0.7898 0.4337
vn -0.4337 0.7898 -0.4337
vt 0.625000 0.500000
vt 0.375000 0.250000
vt 0.625000 0.250000
vt 0.500000 0.000000
vt 0.625000 0.916667
vt 0.500000 1.000000
vt 0.500000 0.916667
vt 0.375000 1.000000
vt 0.375000 0.916667
vt 0.500000 0.750000
vt 0.375000 0.833333
vt 0.375000 0.750000
vt 0.875000 0.500000
vt 0.791667 0.750000
vt 0.708333 0.750000
vt 0.375000 0.500000
vt 0.625000 0.750000
vt 0.500000 0.833333
vt 0.625000 0.833333
vt 0.375000 0.000000
vt 0.625000 0.000000
vt 0.625000 1.000000
vt 0.875000 0.750000
s 1
usemtl House
f 8/1/1 3/2/1 4/3/1
f 9/4/2 4/3/2 3/2/2
f 14/5/3 9/6/3 16/7/3
f 16/7/3 1/8/3 11/9/3
f 10/10/3 12/11/3 5/12/3
f 5/12/4 12/11/4 18/11/4
f 4/13/5 14/14/5 13/15/5
f 3/2/4 7/16/4 17/9/4
f 6/17/3 15/18/3 10/10/3
f 13/19/3 16/7/3 15/18/3
f 19/18/3 17/9/3 18/11/3
f 15/18/2 18/11/2 12/11/2
f 11/9/6 20/7/6 16/7/6
f 16/7/4 19/18/4 15/18/4
f 8/1/6 6/17/6 10/10/6
f 8/1/1 7/16/1 3/2/1
f 3/2/2 1/20/2 9/4/2
f 9/4/2 2/21/2 4/3/2
f 14/5/3 2/22/3 9/6/3
f 16/7/3 9/6/3 1/8/3
f 10/10/3 15/18/3 12/11/3
f 7/16/4 5/12/4 18/11/4
f 6/17/5 8/1/5 13/15/5
f 8/1/5 4/13/5 13/15/5
f 4/13/5 2/23/5 14/14/5
f 17/9/4 11/9/4 1/20/4
f 1/20/4 3/2/4 17/9/4
f 7/16/4 18/11/4 17/9/4
f 6/17/3 13/19/3 15/18/3
f 13/19/3 14/5/3 16/7/3
f 19/18/3 20/7/3 17/9/3
f 15/18/2 19/18/2 18/11/2
f 11/9/6 17/9/6 20/7/6
f 16/7/4 20/7/4 19/18/4
f 5/12/6 7/16/6 10/10/6
f 7/16/6 8/1/6 10/10/6
usemtl Door
f 23/18/3 21/9/3 22/11/3
f 23/18/3 24/7/3 21/9/3
usemtl Roof
f 28/17/7 29/16/7 30/1/7
f 29/16/4 32/17/4 31/1/4
f 25/23/8 30/1/8 26/13/8
f 31/1/1 30/1/1 29/16/1
f 31/1/4 25/23/4 26/13/4
f 29/16/4 27/12/4 32/17/4
f 31/1/4 32/17/4 25/23/4
f 28/17/3 32/17/3 27/12/3
f 28/17/7 27/12/7 29/16/7
f 25/23/8 28/17/8 30/1/8
f 31/1/1 26/13/1 30/1/1
f 28/17/3 25/23/3 32/17/3
o Island
v -0.590340 0.103510 1.246919
v -1.154014 -0.117785 0.997211
v -0.562565 0.243333 1.299017
v -0.593470 0.415818 1.235660
v -1.148595 -0.033082 1.016482
v -1.149626 0.210501 0.975451
v -0.654049 0.550744 0.874087
v -1.149362 0.480129 0.693933
v -1.684145 0.126472 0.546215
v -1.614298 0.380535 0.524092
v -1.717741 -0.024396 0.000000
v -0.729284 0.593172 -0.000000
v -1.286537 0.572286 -0.000000
v -1.664920 0.398124 -0.000000
v 0.000000 0.149648 1.257078
v 0.418069 -0.053421 1.141040
v 1.080875 0.109619 0.978869
v 0.000000 0.539356 0.956693
v 0.572369 0.593172 -0.000000
v 0.493534 0.531883 0.874631
v 1.286537 0.587268 -0.000000
v 1.148805 0.524168 0.694379
v 0.000000 0.354272 1.272754
v 0.438461 0.322628 1.177097
v 1.078829 0.321905 0.959430
v 1.735381 0.112230 0.518190
v 1.614352 0.382976 0.523865
v 0.000000 0.612444 -0.000000
v 1.910633 0.180590 -0.000000
v 1.823958 0.498330 -0.000000
v -0.520500 -0.885346 0.501831
v -0.927329 -1.153046 0.476568
v -0.542430 -0.436762 0.841744
v -0.956208 -0.679072 0.741750
v -1.403017 -0.422853 0.476336
v -1.674329 0.050009 0.529376
v -0.504838 -1.075639 0.000000
v -0.956110 -1.074384 0.000000
v -1.590278 -0.276397 0.000000
v -1.687850 -0.079537 0.000000
v 0.000000 -1.022712 0.000000
v 0.000000 -0.647002 0.501171
v 0.523456 -1.019612 0.502093
v 0.927745 -0.824066 0.476336
v 1.403052 -0.349642 0.476568
v 0.000000 -0.219171 0.897712
v 0.539413 -0.372674 0.842548
v 0.955754 -0.502728 0.741754
v 0.000000 0.033405 1.220001
v 0.419021 -0.220706 1.128208
v 1.067463 -0.027803 0.921374
v 1.836124 0.032985 -0.000000
v 1.641802 -0.002701 0.498233
v 0.504838 -2.204521 0.000000
v 0.956110 -1.358006 0.000000
v 1.590278 -0.235023 0.000000
v -0.590340 0.103510 -1.246919
v -1.154014 -0.117785 -0.997211
v -0.562565 0.243333 -1.299017
v -0.593470 0.415818 -1.235660
v -1.148595 -0.033082 -1.016482
v -1.149626 0.210501 -0.975451
v -0.654049 0.550744 -0.874087
v -1.149362 0.480129 -0.693933
v -1.684145 0.126472 -0.546215
v -1.614298 0.380535 -0.524092
v 0.000000 0.149648 -1.257078
v 0.418069 -0.053421 -1.141040
v 1.080875 0.109619 -0.978869
v 0.000000 0.539356 -0.956693
v 0.493534 0.531883 -0.874631
v 1.148805 0.524168 -0.694379
v 0.000000 0.354272 -1.272754
v 0.438461 0.322628 -1.177097
v 1.078829 0.321905 -0.959430
v 1.735381 0.112230 -0.518190
v 1.614352 0.382976 -0.523865
v -0.520500 -0.650372 -0.501831
v -0.927329 -0.740144 -0.476568
v -0.542430 -0.437069 -0.841744
v -0.956208 -0.472964 -0.741750
v -1.403017 -0.422853 -0.476336
v -1.674329 0.050009 -0.529376
v 0.000000 -1.572460 -0.501171
v 0.523456 -1.048620 -0.502093
v 0.927745 -0.824066 -0.476336
v 1.403052 -0.349642 -0.476568
v 0.000000 -0.254180 -0.897712
v 0.539413 -0.372674 -0.842548
v 0.955754 -0.502728 -0.741754
v 0.000000 0.033405 -1.220001
v 0.575937 -0.220706 -1.128208
v 1.067463 -0.027803 -0.921374
v 1.641802 -0.002701 -0.498233
v 0.513937 0.547745 -0.648266
v 1.217671 0.555718 -0.347189
v -1.700943 0.051038 -0.273107
v 0.000000 0.575900 -0.478347
v -0.691667 0.571958 -0.437043
v -1.217950 0.526207 -0.346967
v -1.639609 0.389329 -0.262046
v 1.823007 0.146410 -0.259095
v 1.719155 0.440653 -0.261932
v 1.738963 0.015142 -0.249116
v -1.681089 -0.014764 -0.264688
vn 0.8676 -0.4379 0.2356
vn -0.4171 0.9061 0.0707
vn 0.8818 0.2405 0.4058
vn 0.0578 0.8615 0.5045
vn -0.4707 0.7979 0.3766
vn -0.3772 0.6690 0.6404
vn 0.4924 -0.5219 0.6966
vn 0.0074 -0.3039 0.9527
vn -0.3076 -0.2780 0.9100
vn -0.0371 0.9896 0.1388
vn -0.0264 0.9984 0.0507
vn 0.0082 0.9957 0.0921
vn 0.1812 0.7581 0.6264
vn 0.1700 0.8504 0.4980
vn 0.6238 0.0772 0.7778
vn 0.0615 -0.0762 0.9952
vn 0.1571 0.9494 0.2719
vn 0.4266 0.6612 0.6172
vn 0.0286 0.9967 0.0757
vn 0.0332 0.9968 0.0730
vn 0.0320 0.9968 0.0728
vn 0.1160 -0.3018 0.9463
vn 0.3086 -0.3926 0.8664
vn -0.6799 -0.2399 0.6929
vn -0.8708 -0.4720 0.1378
vn 0.2184 -0.1049 0.9702
vn 0.2609 -0.1061 0.9595
vn -0.4839 0.1434 0.8633
vn -0.6331 0.1260 0.7637
vn -0.9919 0.1240 0.0268
vn 0.8004 -0.5333 -0.2740
vn -0.3195 0.9455 -0.0626
vn 0.8875 0.3099 -0.3410
vn 0.0578 0.8615 -0.5045
vn -0.3341 0.6808 -0.6518
vn -0.3772 0.6690 -0.6404
vn 0.5625 -0.3652 -0.7418
vn 0.0113 -0.3511 -0.9363
vn -0.3076 -0.2780 -0.9100
vn -0.0961 0.9938 -0.0565
vn -0.0102 0.9970 -0.0762
vn 0.0314 0.9967 -0.0753
vn 0.0317 0.9968 -0.0727
vn 0.0284 0.9968 -0.0750
vn 0.1987 0.7887 -0.5818
vn 0.1700 0.8504 -0.4980
vn 0.6238 0.0772 -0.7778
vn 0.0615 -0.0762 -0.9952
vn 0.3372 0.9292 -0.1513
vn 0.4266 0.6612 -0.6172
vn 0.0296 0.9968 -0.0736
vn 0.0278 0.9967 -0.0761
vn 0.1160 -0.3018 -0.9463
vn 0.3051 0.2168 -0.9273
vn -0.6799 -0.2399 -0.6929
vn -0.9426 -0.3025 -0.1415
vn 0.2074 -0.0747 -0.9754
vn 0.2609 -0.1061 -0.9595
vn -0.4799 0.2254 -0.8479
vn -0.6306 0.2377 -0.7388
vn -0.9784 0.1807 -0.1006
vn -0.9569 0.2719 -0.1016
vn -0.9837 -0.1486 -0.1016
vn 0.0297 0.9967 -0.0759
vn 0.2434 0.9604 -0.1356
vn 0.0193 0.9972 -0.0716
vn 0.0077 0.9971 -0.0762
vn -0.1629 0.9847 -0.0618
vn 0.8609 0.3777 -0.3410
vn -0.4171 0.9061 -0.0707
vn 0.7320 -0.6377 -0.2398
vn 0.7320 -0.6377 0.2398
vn -0.2681 0.9467 0.1787
vn 0.8609 0.3777 0.3410
vn -0.0284 0.9349 0.3536
vn -0.3341 0.6808 0.6518
vn 0.5625 -0.3652 0.7418
vn 0.0113 -0.3511 0.9363
vn -0.3349 -0.1886 0.9232
vn -0.1629 0.9847 0.0618
vn 0.0077 0.9971 0.0762
vn 0.0317 0.9968 0.0727
vn 0.1987 0.7887 0.5818
vn 0.1085 0.8082 0.5789
vn 0.5591 0.2332 0.7956
vn -0.0234 0.3410 0.9398
vn 0.3372 0.9292 0.1513
vn 0.0278 0.9967 0.0761
vn 0.1701 -0.0744 0.9826
vn 0.3221 -0.0706 0.9441
vn -0.6849 -0.1197 0.7188
vn -0.9837 -0.1486 0.1016
vn 0.2074 -0.0747 0.9754
vn 0.3206 0.0894 0.9430
vn -0.4799 0.2254 0.8479
vn -0.6306 0.2377 0.7388
vn -0.9569 0.2719 0.1016
vn 0.8676 -0.4379 -0.2356
vn -0.2681 0.9467 -0.1787
vn 0.8818 0.2405 -0.4058
vn -0.0284 0.9349 -0.3536
vn -0.4707 0.7979 -0.3766
vn 0.4924 -0.5219 -0.6966
vn 0.0074 -0.3039 -0.9527
vn -0.3349 -0.1886 -0.9232
vn -0.0371 0.9896 -0.1388
vn -0.0264 0.9984 -0.0507
vn 0.0299 0.9949 -0.0963
vn 0.1812 0.7581 -0.6264
vn 0.1085 0.8082 -0.5789
vn 0.5591 0.2332 -0.7956
vn -0.0234 0.3410 -0.9398
vn 0.2621 0.9151 -0.3064
vn 0.2087 0.1225 -0.9703
vn 0.3086 -0.3926 -0.8664
vn -0.6849 -0.1197 -0.7188
vn -0.8708 -0.4720 -0.1378
vn 0.2184 -0.1049 -0.9702
vn 0.3206 0.0894 -0.9430
vn -0.4839 0.1434 -0.8633
vn -0.6331 0.1260 -0.7637
vn -0.9919 0.1240 -0.0268
vn -0.9838 0.1787 -0.0111
vn -0.9493 -0.2989 -0.0974
vn 0.0336 0.9968 -0.0729
vn 0.1571 0.9494 -0.2719
vn 0.0082 0.9957 -0.0921
vn -0.0086 0.9988 -0.0492
vn -0.1115 0.9820 -0.1524
vn 0.8611 0.3000 -0.4106
vn -0.3374 0.9221 -0.1892
vn 0.8171 -0.5387 -0.2053
vn -0.0027 -0.9867 -0.1627
vn 0.1554 -0.5918 0.7910
vn -0.7776 -0.6180 0.1157
vn -0.6279 -0.4088 0.6623
vn 0.8050 -0.5652 0.1803
vn -0.6630 -0.2832 0.6930
vn -0.8883 -0.4403 0.1304
vn -0.6357 -0.4940 0.5932
vn 0.5070 -0.8006 0.3194
vn 0.5494 -0.4230 0.7206
vn 0.3428 -0.6152 0.7100
vn -0.1176 -0.6751 0.7283
vn -0.0120 -0.6362 0.7715
vn 0.5562 -0.5575 0.6163
vn 0.1064 -0.3735 0.9215
vn -0.2157 -0.8968 0.3862
vn 0.1521 -0.5843 0.7971
vn 0.1933 -0.6670 0.7196
vn 0.7457 -0.4211 0.5164
vn -0.4956 -0.6950 0.5210
vn 0.6003 -0.3200 0.7330
vn 0.0188 -0.4087 0.9125
vn 0.3949 -0.7316 0.5557
vn 0.3447 -0.7511 0.5631
vn -0.0023 -0.8186 -0.5743
vn -0.0541 -0.8474 -0.5282
vn -0.7776 -0.6180 -0.1157
vn -0.4383 -0.6566 -0.6138
vn 0.8050 -0.5652 -0.1803
vn -0.6706 -0.2864 -0.6843
vn -0.8450 -0.5047 -0.1770
vn -0.6727 -0.4517 -0.5861
vn 0.1266 -0.7548 -0.6436
vn 0.5494 -0.4230 -0.7206
vn 0.3803 -0.6044 -0.7001
vn 0.2755 -0.2769 -0.9206
vn 0.1883 -0.5160 -0.8357
vn 0.5562 -0.5575 -0.6163
vn 0.1064 -0.3735 -0.9215
vn -0.2177 -0.7282 -0.6498
vn 0.1161 -0.5891 -0.7997
vn 0.2218 -0.8194 -0.5285
vn 0.7024 -0.7038 -0.1067
vn 0.5598 -0.5583 0.6124
vn 0.6085 -0.3244 -0.7242
vn -0.1314 -0.6260 -0.7686
vn 0.4696 -0.8029 -0.3671
vn -0.8113 -0.4582 -0.3630
vn -0.8372 -0.5454 -0.0395
vn 0.7024 -0.7038 0.1067
vn 0.1090 -0.6943 -0.7114
vn -0.4724 -0.7079 -0.5250
vn -0.0074 -0.4497 -0.8932
vn -0.4537 -0.2567 -0.8534
vn 0.7457 -0.4211 -0.5164
vn 0.0705 -0.6720 0.7372
vn 0.0975 -0.9296 0.3555
vn 0.2505 -0.4610 0.8513
vn -0.3121 -0.4364 0.8439
vn 0.2733 -0.4532 0.8485
vn 0.2640 -0.5743 0.7749
vn 0.7167 -0.6575 0.2325
vn -0.8450 -0.5047 0.1770
vn -0.6727 -0.4517 0.5861
vn 0.5649 -0.4048 0.7191
vn -0.3238 -0.7447 0.5836
vn -0.0652 -0.7854 0.6155
vn -0.1134 -0.6025 0.7900
vn 0.7167 -0.6575 -0.2325
vn -0.8883 -0.4403 -0.1304
vn -0.4322 -0.6727 -0.6006
vn 0.5649 -0.4048 -0.7191
vn -0.1413 -0.8664 -0.4790
vn -0.0581 -0.7449 -0.6647
vn -0.1136 -0.6023 -0.7901
vt 0.500000 0.687510
vt 0.467659 0.625000
vt 0.500000 0.625000
vt 0.559542 0.065429
vt 0.812510 0.625000
vt 0.610587 0.221154
vt 0.559571 0.684542
vt 0.562510 0.625000
vt 0.750000 0.687510
vt 0.562702 0.907814
vt 0.562510 0.875000
vt 0.783003 0.687736
vt 0.559571 0.934542
vt 0.809571 0.684542
vt 0.500000 0.812490
vt 0.467186 0.687702
vt 0.500000 0.875000
vt 0.466641 0.908634
vt 0.467659 0.875000
vt 0.500000 0.937510
vt 0.500000 0.907341
vt 0.782341 0.625000
vt 0.750000 0.625000
vt 0.717659 0.625000
vt 0.690458 0.684571
vt 0.687490 0.625000
vt 0.717186 0.687702
vt 0.559542 0.815429
vt 0.562735 0.841997
vt 0.500000 0.842659
vt 0.466997 0.812265
vt 0.489556 0.098965
vt 0.500000 0.118776
vt 0.500000 0.125000
vt 0.483560 0.125000
vt 0.500000 0.656255
vt 0.467422 0.656351
vt 0.811041 0.654771
vt 0.585065 0.143291
vt 0.561041 0.654771
vt 0.782672 0.656368
vt 0.750000 0.656255
vt 0.717308 0.671474
vt 0.688974 0.654786
vt 0.466366 0.841641
vt 0.486558 0.111982
vt 0.500000 0.121888
vt 0.480963 0.937622
vt 0.217659 0.625000
vt 0.190458 0.684571
vt 0.187490 0.625000
vt 0.440458 0.934571
vt 0.217186 0.687702
vt 0.437265 0.908003
vt 0.440429 0.065458
vt 0.437490 0.125000
vt 0.437490 0.625000
vt 0.533003 0.687735
vt 0.440458 0.684571
vt 0.283003 0.687735
vt 0.250000 0.625000
vt 0.282341 0.625000
vt 0.574777 0.093696
vt 0.532341 0.125000
vt 0.543328 0.952324
vt 0.532814 0.812298
vt 0.312510 0.625000
vt 0.309571 0.684542
vt 0.250000 0.687510
vt 0.437298 0.842186
vt 0.437490 0.875000
vt 0.440429 0.815458
vt 0.533359 0.841366
vt 0.533634 0.908359
vt 0.532341 0.875000
vt 0.532341 0.625000
vt 0.532672 0.656368
vt 0.553559 0.109348
s 1
usemtl Grass
f 58/24/9 84/25/9 61/26/9
f 42/27/10 45/28/10 46/29/10
f 59/30/11 61/26/11 62/31/11
f 50/32/12 36/33/12 55/34/12
f 39/35/13 38/36/13 36/33/13
f 42/27/14 38/36/14 40/37/14
f 49/38/15 85/39/15 58/24/15
f 47/40/16 33/41/16 81/42/16
f 37/43/17 33/41/17 35/44/17
f 40/37/18 44/45/18 45/28/18
f 39/35/19 60/46/19 44/45/19
f 51/47/20 54/48/20 53/49/20
f 52/50/21 57/51/21 54/48/21
f 56/52/22 50/32/22 55/34/22
f 49/38/23 59/30/23 57/51/23
f 55/34/24 35/44/24 47/40/24
f 53/49/25 59/30/25 62/31/25
f 59/30/26 54/48/26 57/51/26
f 60/46/27 52/50/28 51/47/29
f 81/42/30 48/53/30 47/40/30
f 48/53/31 83/54/31 49/38/31
f 68/55/32 37/43/32 41/56/32
f 68/55/33 43/57/33 72/58/33
f 56/52/34 47/40/34 48/53/34
f 49/38/35 56/52/35 48/53/35
f 35/44/36 38/36/36 37/43/36
f 38/36/37 41/56/37 37/43/37
f 41/56/38 46/29/38 43/57/38
f 134/59/39 84/25/39 136/60/39
f 132/61/40 98/27/40 133/62/40
f 135/63/41 61/26/41 134/59/41
f 92/33/42 102/32/42 105/34/42
f 95/35/43 94/36/43 96/37/43
f 98/27/44 96/37/44 94/36/44
f 101/38/45 126/39/45 125/54/45
f 99/40/46 89/41/46 91/44/46
f 89/41/47 93/43/47 91/44/47
f 132/61/48 44/45/48 131/64/48
f 131/64/49 60/46/49 130/65/49
f 127/66/50 104/48/51 103/50/52
f 103/50/53 107/51/53 106/52/53
f 102/32/54 106/52/54 105/34/54
f 109/30/55 101/38/55 107/51/55
f 91/44/56 105/34/56 99/40/56
f 128/67/57 109/30/57 104/48/57
f 109/30/58 107/51/58 104/48/58
f 130/65/59 103/50/52 102/32/60
f 100/53/61 123/42/61 99/40/61
f 100/53/62 125/54/62 124/68/62
f 93/43/63 115/55/63 97/56/63
f 137/69/64 43/57/64 129/70/64
f 106/52/65 99/40/65 105/34/65
f 106/52/66 101/38/66 100/53/66
f 91/44/67 94/36/67 92/33/67
f 94/36/68 97/56/68 98/27/68
f 129/70/69 46/29/69 133/62/69
f 97/56/70 133/62/70 98/27/70
f 115/55/71 129/70/71 97/56/71
f 60/46/72 127/66/50 130/65/59
f 53/49/73 135/63/73 128/67/73
f 51/47/74 128/67/74 127/66/74
f 95/35/75 130/65/75 102/32/75
f 96/37/76 131/64/76 95/35/76
f 109/30/77 134/59/77 108/24/77
f 45/28/78 133/62/78 46/29/78
f 108/24/79 136/60/79 126/39/79
f 58/24/80 85/39/80 84/25/80
f 42/27/81 40/37/81 45/28/81
f 59/30/82 58/24/82 61/26/82
f 50/32/83 39/35/83 36/33/83
f 39/35/84 40/37/84 38/36/84
f 49/38/85 83/54/85 85/39/85
f 47/40/86 35/44/86 33/41/86
f 37/43/87 34/71/87 33/41/87
f 40/37/88 39/35/88 44/45/88
f 39/35/89 50/32/89 60/46/89
f 51/47/29 52/50/28 54/48/90
f 52/50/91 56/52/91 57/51/91
f 56/52/92 52/50/92 50/32/92
f 49/38/93 58/24/93 59/30/93
f 55/34/94 36/33/94 35/44/94
f 53/49/95 54/48/95 59/30/95
f 60/46/27 50/32/96 52/50/28
f 81/42/97 82/68/97 48/53/97
f 48/53/98 82/68/98 83/54/98
f 68/55/99 34/71/99 37/43/99
f 68/55/100 41/56/100 43/57/100
f 56/52/101 55/34/101 47/40/101
f 49/38/102 57/51/102 56/52/102
f 35/44/103 36/33/103 38/36/103
f 38/36/104 42/27/104 41/56/104
f 41/56/105 42/27/105 46/29/105
f 134/59/106 61/26/106 84/25/106
f 132/61/107 96/37/107 98/27/107
f 135/63/108 62/31/108 61/26/108
f 92/33/109 95/35/109 102/32/109
f 95/35/110 92/33/110 94/36/110
f 101/38/111 108/24/111 126/39/111
f 99/40/112 123/42/112 89/41/112
f 89/41/113 90/71/113 93/43/113
f 132/61/114 45/28/114 44/45/114
f 131/64/115 44/45/115 60/46/115
f 127/66/116 128/67/116 104/48/116
f 103/50/117 104/48/117 107/51/117
f 102/32/118 103/50/118 106/52/118
f 109/30/119 108/24/119 101/38/119
f 91/44/120 92/33/120 105/34/120
f 128/67/121 135/63/121 109/30/121
f 130/65/59 127/66/50 103/50/52
f 100/53/122 124/68/122 123/42/122
f 100/53/123 101/38/123 125/54/123
f 93/43/124 90/71/124 115/55/124
f 137/69/125 72/58/125 43/57/125
f 106/52/126 100/53/126 99/40/126
f 106/52/127 107/51/127 101/38/127
f 91/44/128 93/43/128 94/36/128
f 94/36/129 93/43/129 97/56/129
f 129/70/130 43/57/130 46/29/130
f 97/56/131 129/70/131 133/62/131
f 115/55/132 137/69/132 129/70/132
f 60/46/72 51/47/133 127/66/50
f 53/49/134 62/31/134 135/63/134
f 51/47/135 53/49/135 128/67/135
f 95/35/136 131/64/136 130/65/136
f 96/37/137 132/61/137 131/64/137
f 109/30/138 135/63/138 134/59/138
f 45/28/139 132/61/139 133/62/139
f 108/24/140 134/59/140 136/60/140
usemtl Land
f 69/72/141 64/73/141 70/74/141
f 66/75/142 63/76/142 65/77/142
f 70/74/143 67/78/143 71/79/143
f 66/75/144 67/78/144 64/73/144
f 88/80/145 85/81/145 77/82/145
f 75/83/146 73/84/146 86/85/146
f 71/79/147 68/86/147 72/87/147
f 34/88/148 67/78/148 66/75/148
f 69/72/149 63/76/149 64/73/149
f 83/89/150 77/82/150 85/81/150
f 75/83/151 87/90/151 76/91/151
f 74/92/152 79/93/152 78/94/152
f 79/93/153 76/91/153 80/95/153
f 77/82/154 80/95/154 76/91/154
f 83/89/155 79/93/155 80/95/155
f 82/96/156 78/94/156 79/93/156
f 78/94/157 33/97/157 65/77/157
f 65/77/158 74/92/158 78/94/158
f 88/80/159 76/91/159 87/90/159
f 75/83/160 74/92/160 73/84/160
f 75/83/161 86/85/161 87/90/161
f 65/77/162 34/88/162 66/75/162
f 83/89/163 82/96/163 79/93/163
f 63/76/164 73/84/164 74/92/164
f 69/72/165 70/74/165 111/73/165
f 110/76/166 113/75/166 112/77/166
f 114/78/167 70/74/167 71/79/167
f 113/75/168 111/73/168 114/78/168
f 126/81/169 88/80/169 119/82/169
f 117/83/170 86/85/170 73/84/170
f 71/79/171 115/86/171 114/78/171
f 90/88/172 114/78/172 115/86/172
f 69/72/173 111/73/173 110/76/173
f 119/82/174 125/89/174 126/81/174
f 117/83/175 118/91/175 87/90/175
f 120/94/176 117/83/176 116/92/176
f 121/93/177 122/95/177 118/91/177 117/83/177
f 119/82/178 118/91/178 122/95/178
f 125/89/179 122/95/179 121/93/179
f 124/96/180 120/94/180 123/98/180
f 89/97/181 120/94/181 112/77/181
f 120/94/182 110/76/182 112/77/182
f 88/80/183 118/91/183 119/82/183
f 117/83/184 73/84/184 116/92/184
f 117/83/185 87/90/185 86/85/185
f 90/88/186 112/77/186 113/75/186
f 125/89/187 121/93/187 124/96/187
f 116/92/188 69/72/188 110/76/188
f 70/74/189 64/73/189 67/78/189
f 88/80/190 77/82/190 76/91/190
f 110/76/191 111/73/191 113/75/191
f 114/78/192 111/73/192 70/74/192
f 120/94/193 121/93/193 117/83/193
f 120/94/194 116/92/194 110/76/194
f 88/80/195 87/90/195 118/91/195
f 116/92/196 73/84/196 69/72/196
f 63/76/197 69/72/197 73/84/197
f 66/75/198 64/73/198 63/76/198
f 74/92/199 75/83/199 79/93/199
f 79/93/200 75/83/200 76/91/200
f 65/77/201 63/76/201 74/92/201
f 88/80/202 84/99/202 85/81/202
f 71/79/203 67/78/203 68/86/203
f 34/88/204 68/86/204 67/78/204
f 83/89/205 80/95/205 77/82/205
f 82/96/206 81/98/206 78/94/206
f 78/94/207 81/98/207 33/97/207
f 65/77/208 33/97/208 34/88/208
f 126/81/209 136/100/209 84/99/209 88/80/209
f 71/79/210 72/87/210 137/101/210 115/86/210
f 90/88/211 113/75/211 114/78/211
f 119/82/212 122/95/212 125/89/212
f 124/96/213 121/93/213 120/94/213
f 89/97/214 123/98/214 120/94/214
f 90/88/215 89/97/215 112/77/215
o Tree
v -0.820652 1.232211 -0.137629
v -0.941290 1.452916 -0.129382
v -0.831856 1.318047 -0.072277
v -0.906353 1.331811 -0.144901
v -0.906353 1.245833 -0.237228
v -0.828857 1.452916 -0.038149
v -0.831856 1.587785 -0.072277
v -0.820652 1.673621 -0.137629
v -0.831856 1.738973 -0.223464
v -0.906353 1.666349 -0.237228
v -0.906353 1.574022 -0.144901
v -0.941290 1.228480 -0.358334
v -0.906353 1.239485 -0.479439
v -0.906353 1.331811 -0.571766
v -0.831856 1.318047 -0.644390
v -0.820652 1.232211 -0.579038
v -1.087519 1.588217 -0.493635
v -1.124993 1.585522 -0.358334
v -1.151373 1.452916 -0.358334
v -0.972247 1.570083 -0.564824
v -0.828857 1.773100 -0.358334
v -0.831856 1.738973 -0.493203
v -0.820652 1.673621 -0.579038
v -0.828857 1.452916 -0.678518
v -0.941290 1.452916 -0.587285
v -1.001655 1.452916 -0.580825
v -0.831856 1.587785 -0.644390
v -0.906353 1.574022 -0.571766
v -0.941290 1.681868 -0.358334
v -0.919553 1.634580 -0.539997
v -0.906353 1.666349 -0.479439
v -1.001655 1.675408 -0.358334
v -0.972247 1.659407 -0.475500
v -0.972247 1.335750 -0.564824
v -1.124993 1.320311 -0.358334
v -0.696232 1.320292 -0.038149
v -0.696232 1.207858 -0.113275
v -1.087519 1.317615 -0.493635
v -0.696232 1.799481 -0.358334
v -0.696232 1.452916 -0.011769
v -1.124993 1.452916 -0.490939
v -0.696232 1.773100 -0.225709
v -0.696232 1.697975 -0.113275
v -0.919553 1.271253 -0.539997
v -0.696232 1.585541 -0.038149
v -0.972247 1.246426 -0.475500
v -1.001655 1.230425 -0.358334
v -1.087519 1.588217 -0.223032
v -0.972247 1.659407 -0.241167
v -0.972247 1.570083 -0.151843
v -0.919553 1.634580 -0.176670
v -0.696232 1.207858 -0.603392
v -1.124993 1.452916 -0.225728
v -1.087519 1.317615 -0.223032
v -0.696232 1.320292 -0.678518
v -0.972247 1.335750 -0.151843
v -1.001655 1.452916 -0.135842
v -0.972247 1.246426 -0.241167
v -0.919553 1.271253 -0.176670
v -0.696232 1.452916 -0.704898
v -0.696232 1.773100 -0.490958
v -0.696232 1.585541 -0.678518
v -0.696232 1.697975 -0.603392
v -0.571812 1.232211 -0.137629
v -0.451174 1.452916 -0.129382
v -0.560608 1.318047 -0.072277
v -0.486111 1.331811 -0.144901
v -0.486111 1.241871 -0.237228
v -0.563608 1.452916 -0.038149
v -0.560608 1.587785 -0.072277
v -0.571812 1.673621 -0.137629
v -0.560608 1.738973 -0.223464
v -0.486111 1.666349 -0.237228
v -0.486111 1.574022 -0.144901
v -0.451174 1.227614 -0.358334
v -0.543178 1.206167 -0.378579
v -0.486111 1.239484 -0.479439
v -0.486111 1.331811 -0.571766
v -0.560608 1.318047 -0.644390
v -0.571812 1.232211 -0.579038
v -0.304946 1.588217 -0.493635
v -0.267472 1.585522 -0.358334
v -0.241091 1.452916 -0.358334
v -0.420217 1.570083 -0.564824
v -0.563608 1.773100 -0.358334
v -0.560608 1.738973 -0.493203
v -0.571812 1.673621 -0.579038
v -0.563608 1.452916 -0.678518
v -0.451174 1.452916 -0.587285
v -0.390810 1.452916 -0.580825
v -0.560608 1.587785 -0.644390
v -0.486111 1.574022 -0.571766
v -0.451174 1.681868 -0.358334
v -0.472911 1.634580 -0.539997
v -0.486111 1.666349 -0.479439
v -0.390810 1.675408 -0.358334
v -0.420217 1.659407 -0.475500
v -0.420217 1.335750 -0.564824
v -0.267472 1.320311 -0.358334
v -0.304946 1.317615 -0.493635
v -0.267472 1.452916 -0.490939
v -0.472911 1.271253 -0.539997
v -0.420217 1.246426 -0.475500
v -0.390810 1.230425 -0.358334
v -0.304946 1.588217 -0.223032
v -0.420217 1.659407 -0.241167
v -0.420217 1.570083 -0.151843
v -0.472911 1.634580 -0.176670
v -0.267472 1.452916 -0.225728
v -0.304946 1.317615 -0.223032
v -0.420217 1.335750 -0.151843
v -0.390810 1.452916 -0.135842
v -0.420217 1.246426 -0.241167
v -0.472911 1.271253 -0.176670
v -0.657212 1.176602 -0.186383
v -0.634022 1.220035 -0.125452
v -0.629920 1.452916 -0.024959
v -0.628420 1.319170 -0.055213
v -0.628420 1.586663 -0.055213
v -0.634022 1.685798 -0.125452
v -0.629920 1.786291 -0.358334
v -0.628420 1.756037 -0.224587
v -0.634022 1.220035 -0.591215
v -0.629920 1.452916 -0.691708
v -0.628420 1.319170 -0.661454
v -0.628420 1.756037 -0.492080
v -0.634022 1.685798 -0.591215
v -0.628420 1.586663 -0.661454
v -0.758442 1.220035 -0.125452
v -0.762544 1.452916 -0.024959
v -0.764044 1.319170 -0.055213
v -0.764044 1.586663 -0.055213
v -0.758442 1.685798 -0.125452
v -0.762544 1.786291 -0.358334
v -0.764044 1.756037 -0.224587
v -0.758442 1.220035 -0.591215
v -0.762544 1.452916 -0.691708
v -0.764044 1.319170 -0.661454
v -0.764044 1.756037 -0.492080
v -0.758442 1.685798 -0.591215
v -0.764044 1.586663 -0.661454
v -0.951701 0.582189 -0.056718
v -0.976298 0.582189 -0.251417
v -1.068797 0.582189 -0.424498
v -0.912481 0.582189 -0.543147
v -0.808838 0.582189 -0.709797
v -0.755560 0.582189 -0.050284
v -0.471005 0.582189 -0.140883
v -0.574646 0.582189 0.025764
v -0.627926 0.582189 -0.633746
v -0.314687 0.582189 -0.259535
v -0.431783 0.582189 -0.627315
v -0.407189 0.582189 -0.432613
v -0.805337 1.190675 -0.222760
v -0.805490 0.989212 -0.223471
v -0.855710 0.746740 -0.161228
v -0.850903 1.213514 -0.290926
v -0.851194 0.993991 -0.291869
v -0.885960 0.746772 -0.280181
v -0.764247 0.747521 -0.574216
v -0.715905 1.007622 -0.500044
v -0.715825 1.174066 -0.499852
v -0.841868 0.747168 -0.478965
v -0.797146 1.006090 -0.452524
v -0.797138 1.184766 -0.452204
v -0.931137 0.746791 -0.394385
v -0.848832 1.000451 -0.375826
v -0.848625 1.213043 -0.375056
v -0.540716 1.204442 -0.307571
v -0.540881 0.986244 -0.308256
v -0.453018 0.746726 -0.289410
v -0.498717 0.746615 -0.403417
v -0.539919 0.990133 -0.390688
v -0.527364 0.746726 -0.522916
v -0.571088 0.997028 -0.462597
v -0.570141 1.177427 -0.461098
v -0.647698 0.746988 -0.541175
v -0.633420 1.003878 -0.503926
v -0.632859 1.170233 -0.503141
v -0.727905 1.179308 -0.186047
v -0.727933 0.987149 -0.186545
v -0.735243 0.746745 -0.143200
v -0.618027 0.746720 -0.110183
v -0.642455 0.986579 -0.189996
v -0.541040 0.746762 -0.205071
v -0.575160 0.985894 -0.234592
v -0.575217 1.186678 -0.234219
vn -0.6793 -0.7003 0.2195
vn -0.1641 -0.9864 0.0011
vn -0.3574 -0.9160 0.1822
vn -0.1905 -0.2146 0.9579
vn -0.7041 -0.1595 0.6920
vn -0.2638 -0.5675 0.7800
vn -0.2637 -0.5675 0.7800
vn -0.6455 -0.5142 0.5647
vn -0.1201 0.8897 0.4406
vn -0.0319 -0.9892 0.1431
vn -0.1201 -0.4406 0.8897
vn -0.1112 -0.9863 -0.1217
vn -0.1905 0.2146 0.9579
vn -0.1838 0.6105 0.7704
vn -0.6066 0.2708 0.7475
vn -0.6455 0.5142 0.5647
vn -0.1906 0.9579 0.2146
vn -0.7041 0.6920 0.1594
vn -0.2638 0.7800 0.5675
vn -0.6455 0.5647 0.5142
vn -0.1201 0.8897 -0.4406
vn -0.1201 0.4406 0.8897
vn -0.0311 -0.9240 0.3811
vn -0.1115 0.1586 -0.9810
vn -0.1064 0.1600 -0.9814
vn -0.1128 0.1582 -0.9809
vn -0.4527 -0.8913 0.0246
vn -0.3017 -0.9007 -0.3125
vn -0.3794 -0.8875 -0.2616
vn -0.1200 -0.8897 -0.4405
vn -0.1115 0.9810 -0.1586
vn -0.1064 0.9814 -0.1600
vn -0.1050 0.9814 -0.1604
vn -0.1115 0.1586 0.9810
vn -0.1064 0.1600 0.9814
vn -0.1050 0.1604 0.9814
vn -0.1115 -0.1586 0.9810
vn -0.1064 -0.1600 0.9814
vn -0.1128 -0.1582 0.9809
vn -0.1905 -0.2146 -0.9579
vn -0.1837 -0.6105 -0.7704
vn -0.6066 -0.2708 -0.7475
vn -0.6455 -0.5142 -0.5647
vn -0.1906 0.9579 -0.2146
vn -0.1837 0.7704 -0.6105
vn -0.6066 0.7475 -0.2708
vn -0.6455 0.5647 -0.5142
vn -0.1905 0.2146 -0.9579
vn -0.7041 0.1595 -0.6920
vn -0.2638 0.5675 -0.7800
vn -0.6455 0.5142 -0.5647
vn -0.1201 0.4406 -0.8897
vn -0.1115 -0.1586 -0.9810
vn -0.1064 -0.1600 -0.9814
vn -0.1050 -0.1604 -0.9814
vn -0.1201 -0.4406 -0.8897
vn -0.1115 0.9810 0.1586
vn -0.1064 0.9814 0.1600
vn -0.1128 0.9809 0.1582
vn -0.3095 0.6724 -0.6724
vn -0.5827 0.1455 -0.7996
vn -0.5827 0.7996 -0.1455
vn -0.9626 0.1915 -0.1915
vn -0.3095 -0.6724 -0.6724
vn -0.5827 -0.7996 -0.1455
vn -0.5827 -0.1455 -0.7996
vn -0.9626 -0.1915 -0.1915
vn -0.3095 0.6724 0.6724
vn -0.5827 0.7996 0.1455
vn -0.5827 0.1455 0.7996
vn -0.9626 0.1915 0.1915
vn -0.3095 -0.6724 0.6724
vn -0.5827 -0.1455 0.7996
vn -0.5827 -0.7996 0.1455
vn -0.9626 -0.1915 0.1915
vn 0.2591 -0.8304 0.4933
vn 0.5271 -0.8487 0.0424
vn 0.5010 -0.7895 0.3545
vn 0.1905 -0.2146 0.9579
vn 0.6066 -0.2708 0.7475
vn 0.1837 -0.6105 0.7704
vn 0.6455 -0.5142 0.5647
vn 0.1201 0.8897 0.4406
vn 0.0765 -0.9874 0.1383
vn 0.1201 -0.4406 0.8897
vn 0.1115 -0.9854 -0.1287
vn 0.1905 0.2146 0.9579
vn 0.2638 0.5675 0.7800
vn 0.7041 0.1594 0.6920
vn 0.6455 0.5142 0.5647
vn 0.1906 0.9579 0.2146
vn 0.6066 0.7475 0.2708
vn 0.1837 0.7704 0.6105
vn 0.6455 0.5647 0.5142
vn 0.1201 0.8897 -0.4405
vn 0.1201 0.4406 0.8897
vn 0.0875 -0.9036 0.4193
vn 0.1064 0.1600 -0.9814
vn 0.1115 0.1586 -0.9810
vn 0.1128 0.1582 -0.9809
vn 0.2335 -0.9718 -0.0317
vn 0.9186 -0.3533 -0.1771
vn 0.2685 -0.9496 -0.1617
vn 0.2603 -0.9510 -0.1668
vn 0.2672 -0.9498 -0.1625
vn 0.1201 -0.8897 -0.4406
vn 0.1115 0.9810 -0.1586
vn 0.1064 0.9814 -0.1600
vn 0.1128 0.9809 -0.1582
vn 0.1115 0.1586 0.9810
vn 0.1064 0.1600 0.9814
vn 0.1128 0.1582 0.9809
vn 0.1064 -0.1600 0.9814
vn 0.1115 -0.1586 0.9810
vn 0.1128 -0.1582 0.9809
vn 0.1905 -0.2146 -0.9579
vn 0.2638 -0.5675 -0.7800
vn 0.2637 -0.5675 -0.7800
vn 0.7041 -0.1594 -0.6920
vn 0.6455 -0.5142 -0.5647
vn 0.1906 0.9579 -0.2146
vn 0.2638 0.7800 -0.5675
vn 0.7041 0.6920 -0.1594
vn 0.6455 0.5647 -0.5142
vn 0.1905 0.2146 -0.9579
vn 0.6066 0.2708 -0.7475
vn 0.1838 0.6105 -0.7704
vn 0.6455 0.5142 -0.5647
vn 0.1201 0.4406 -0.8897
vn 0.1115 -0.1586 -0.9810
vn 0.1064 -0.1600 -0.9814
vn 0.1128 -0.1582 -0.9809
vn 0.1201 -0.4406 -0.8897
vn 0.1064 0.9814 0.1600
vn 0.1115 0.9810 0.1586
vn 0.1128 0.9809 0.1582
vn 0.3095 0.6724 -0.6724
vn 0.5827 0.1455 -0.7996
vn 0.5827 0.7996 -0.1455
vn 0.9626 0.1915 -0.1915
vn 0.3095 -0.6724 -0.6724
vn 0.5827 -0.7996 -0.1455
vn 0.5827 -0.1455 -0.7996
vn 0.9626 -0.1915 -0.1915
vn 0.3095 0.6724 0.6724
vn 0.5827 0.7996 0.1455
vn 0.5827 0.1455 0.7996
vn 0.9626 0.1915 0.1915
vn 0.3095 -0.6724 0.6724
vn 0.5827 -0.1455 0.7996
vn 0.5827 -0.7996 0.1455
vn 0.9626 -0.1915 0.1915
vn 0.1962 0.5448 -0.8153
vn 0.1915 0.1915 -0.9626
vn 0.1961 0.8153 -0.5448
vn 0.1915 0.9626 -0.1915
vn 0.1962 -0.5448 -0.8153
vn 0.1915 -0.1915 -0.9626
vn 0.3969 -0.7967 -0.4558
vn 0.1961 0.8153 0.5448
vn 0.1915 0.9626 0.1915
vn 0.1962 0.5448 0.8153
vn 0.1915 0.1915 0.9626
vn 0.1962 -0.5448 0.8153
vn 0.1915 -0.1915 0.9626
vn -0.0336 -0.9253 0.3777
vn -0.1962 0.5448 -0.8153
vn -0.1915 0.1915 -0.9626
vn -0.1961 0.8153 -0.5448
vn -0.1915 0.9626 -0.1915
vn -0.1962 -0.5448 -0.8153
vn -0.1915 -0.1915 -0.9626
vn -0.0564 -0.9459 -0.3194
vn -0.1961 0.8153 0.5448
vn -0.1915 0.9626 0.1915
vn -0.1962 0.5448 0.8153
vn -0.1915 0.1915 0.9626
vn -0.1962 -0.5448 0.8153
vn -0.1915 -0.1915 0.9626
vn -0.3205 -0.8530 0.4118
vn -0.2496 -0.8872 0.3880
vn -0.3196 -0.9207 0.2241
vn -0.4424 -0.8573 0.2634
vn -0.2336 -0.2336 0.9438
vn -0.6066 -0.2708 0.7475
vn -0.1837 -0.6105 0.7704
vn -0.4570 -0.3330 0.8247
vn -0.0177 -0.9890 0.1468
vn -0.0319 -0.9892 -0.1431
vn -0.2336 0.2336 0.9438
vn -0.2638 0.5675 0.7800
vn -0.7041 0.1595 0.6920
vn -0.4570 0.3330 0.8247
vn -0.2336 0.9438 0.2336
vn -0.6066 0.7475 0.2708
vn -0.1837 0.7704 0.6105
vn -0.4570 0.8247 0.3330
vn -0.1050 0.1604 -0.9814
vn -0.1876 -0.9719 -0.1424
vn -0.2396 -0.9231 -0.3009
vn -0.4570 -0.8247 -0.3330
vn -0.1128 0.9809 -0.1582
vn -0.1128 0.1582 0.9809
vn -0.1050 -0.1604 0.9814
vn -0.2336 -0.2336 -0.9438
vn -0.2638 -0.5675 -0.7800
vn -0.2637 -0.5675 -0.7800
vn -0.7041 -0.1595 -0.6920
vn -0.4570 -0.3330 -0.8247
vn -0.2336 0.9438 -0.2336
vn -0.2638 0.7800 -0.5675
vn -0.7041 0.6920 -0.1594
vn -0.4570 0.8247 -0.3330
vn -0.2336 0.2336 -0.9438
vn -0.6066 0.2708 -0.7475
vn -0.1838 0.6105 -0.7704
vn -0.4570 0.3330 -0.8247
vn -0.1128 -0.1582 -0.9809
vn -0.1050 0.9814 0.1604
vn -0.4699 0.6242 -0.6242
vn -0.4834 0.2364 -0.8429
vn -0.4834 0.8429 -0.2364
vn -0.9335 0.2535 -0.2535
vn -0.4699 -0.6242 -0.6242
vn -0.4834 -0.8429 -0.2364
vn -0.4834 -0.2364 -0.8429
vn -0.9335 -0.2535 -0.2535
vn -0.4699 0.6242 0.6242
vn -0.4834 0.8429 0.2364
vn -0.4834 0.2364 0.8429
vn -0.9335 0.2535 0.2535
vn -0.4699 -0.6242 0.6242
vn -0.4834 -0.2364 0.8429
vn -0.4834 -0.8429 0.2364
vn -0.9335 -0.2535 0.2535
vn 0.3341 -0.8570 0.3922
vn 0.3546 -0.9112 0.2096
vn 0.4520 -0.8373 0.3077
vn 0.2336 -0.2336 0.9438
vn 0.7041 -0.1594 0.6920
vn 0.2638 -0.5675 0.7800
vn 0.2637 -0.5675 0.7800
vn 0.4570 -0.3330 0.8247
vn 0.0460 -0.9881 0.1465
vn 0.0460 -0.9881 -0.1465
vn 0.2336 0.2336 0.9438
vn 0.1838 0.6105 0.7704
vn 0.6066 0.2708 0.7475
vn 0.4570 0.3330 0.8247
vn 0.2336 0.9438 0.2336
vn 0.7041 0.6920 0.1594
vn 0.2638 0.7800 0.5675
vn 0.4570 0.8247 0.3330
vn 0.1050 0.1604 -0.9814
vn 0.2587 -0.9513 -0.1679
vn 0.2519 -0.8763 -0.4106
vn 0.4570 -0.8247 -0.3330
vn 0.1050 0.9814 -0.1604
vn 0.1050 0.1604 0.9814
vn 0.1050 -0.1604 0.9814
vn 0.2336 -0.2336 -0.9438
vn 0.1837 -0.6105 -0.7704
vn 0.6066 -0.2708 -0.7475
vn 0.4570 -0.3330 -0.8247
vn 0.2336 0.9438 -0.2336
vn 0.1837 0.7704 -0.6105
vn 0.6066 0.7475 -0.2708
vn 0.4570 0.8247 -0.3330
vn 0.2336 0.2336 -0.9438
vn 0.7041 0.1594 -0.6920
vn 0.2638 0.5675 -0.7800
vn 0.4570 0.3330 -0.8247
vn 0.1050 -0.1604 -0.9814
vn 0.1050 0.9814 0.1604
vn 0.4699 0.6242 -0.6242
vn 0.4834 0.2364 -0.8429
vn 0.4834 0.8429 -0.2364
vn 0.9335 0.2535 -0.2535
vn 0.4699 -0.6242 -0.6242
vn 0.4834 -0.8429 -0.2364
vn 0.4834 -0.2364 -0.8429
vn 0.9335 -0.2535 -0.2535
vn 0.4699 0.6242 0.6242
vn 0.4834 0.8429 0.2364
vn 0.4834 0.2364 0.8429
vn 0.9335 0.2535 0.2535
vn 0.4699 -0.6242 0.6242
vn 0.4834 -0.2364 0.8429
vn 0.4834 -0.8429 0.2364
vn 0.9335 -0.2535 0.2535
vn 0.2352 0.2119 -0.9486
vn 0.2352 0.9486 -0.2119
vn 0.2352 -0.2119 -0.9486
vn 0.2579 -0.8396 -0.4781
vn 0.2352 0.9486 0.2119
vn 0.2352 0.2119 0.9486
vn 0.2352 -0.2119 0.9486
vn -0.2352 0.2119 -0.9486
vn -0.2352 0.9486 -0.2119
vn -0.2352 -0.2119 -0.9486
vn -0.2446 -0.9072 -0.3424
vn -0.2352 0.9486 0.2119
vn -0.2352 0.2119 0.9486
vn -0.2352 -0.2119 0.9486
vn -0.2553 -0.8571 0.4474
vn -0.0399 0.1456 -0.9885
vn -0.2347 0.4998 0.8338
vn -0.7390 0.5458 0.3949
vn -0.0274 0.5473 0.8365
vn 0.8403 0.5035 -0.2010
vn -0.6722 0.5001 -0.5459
vn 0.2387 0.4972 -0.8341
vn 0.6727 0.4993 0.5460
vn 0.1456 0.2557 -0.9557
vn -0.5051 0.0013 -0.8631
vn -0.5049 0.0013 -0.8632
vn -0.5049 0.0012 -0.8632
vn -0.8197 0.1965 -0.5380
vn 0.5524 0.0271 0.8331
vn -0.4825 0.3220 -0.8146
vn 0.9095 0.1736 -0.3776
vn 0.5535 0.0025 -0.8328
vn 0.5558 0.0037 -0.8313
vn 0.5528 0.0021 -0.8333
vn -0.4196 0.1734 0.8910
vn -0.8315 -0.0013 0.5555
vn 0.5996 0.4992 0.6256
vn -0.9996 0.0014 -0.0278
vn -0.9996 0.0012 -0.0274
vn -0.9996 0.0014 -0.0280
vn 0.0409 0.1761 0.9835
vn -0.4296 -0.0025 0.9030
vn -0.4291 -0.0028 0.9033
vn -0.4299 -0.0023 0.9029
vn -0.9370 0.2553 0.2384
vn 0.9993 0.0170 -0.0342
vn -0.9902 0.1384 -0.0172
vn 0.9175 -0.0015 -0.3978
vn 0.8018 0.5035 -0.3219
vn -0.5969 0.4997 -0.6277
vn 0.8917 0.1786 0.4158
vn -0.8310 0.0025 -0.5563
vn -0.8297 0.0013 -0.5582
vn -0.8293 0.0010 -0.5588
vn 0.9860 0.1658 0.0193
vn 0.7460 0.2774 0.6054
vn -0.0408 0.0018 -0.9992
vn -0.0456 0.0043 -0.9990
vn -0.0468 0.0049 -0.9989
vn 0.1312 0.4974 -0.8575
vn 0.0047 -0.0026 1.0000
vn -0.8287 0.5499 0.1047
vn 0.9054 -0.0017 0.4246
vn 0.9063 -0.0008 0.4226
vn 0.9066 -0.0005 0.4219
vn 0.8296 0.5484 -0.1048
vn -0.7080 0.5521 -0.4403
vn -0.6635 0.2664 -0.6991
vn -0.7607 0.1946 -0.6192
vn 0.9486 0.2205 -0.2272
vn 0.7375 0.5484 -0.3941
vn -0.5066 0.5458 -0.6674
vn 0.8862 0.2971 -0.3555
vn 0.2671 0.2180 -0.9387
vn -0.3235 0.5506 0.7696
vn -0.8062 0.4983 0.3190
vn -0.1282 0.4996 0.8567
vn 0.3247 0.5458 -0.7724
vn 0.7086 0.5510 0.4407
vn 0.5572 0.0887 -0.8256
vn -0.5054 0.0016 -0.8629
vn 0.5040 -0.0015 0.8637
vn 0.5565 0.0040 -0.8308
vn -0.1424 0.2737 0.9512
vn -0.8316 -0.0013 0.5554
vn 0.5062 0.5467 0.6670
vn -0.9996 0.0011 -0.0271
vn -0.2602 0.2809 0.9238
vn -0.4288 -0.0029 0.9034
vn -0.8185 0.1414 0.5568
vn 0.9999 -0.0008 0.0116
vn -0.8966 0.2650 0.3547
vn 0.9467 0.0322 -0.3206
vn 0.6608 0.2966 0.6895
vn -0.8313 0.0028 -0.5558
vn 0.5448 0.1789 0.8193
vn -0.0396 0.0012 -0.9992
vn 0.0274 0.5469 -0.8368
vn 0.0402 -0.0159 0.9991
vn -0.8401 0.4985 0.2138
vn 0.9051 -0.0020 0.4252
vt 0.225483 0.673435
vt 0.203454 0.750000
vt 0.200966 0.674034
vt 0.125000 0.625000
vt 0.202165 0.625000
vt 0.125000 0.671546
vt 0.500000 0.922835
vt 0.451565 0.899517
vt 0.500000 0.898918
vt 0.453454 1.000000
vt 0.450966 0.924034
vt 0.375000 0.921546
vt 0.375000 0.898273
vt 0.875000 0.697169
vt 0.875000 0.671546
vt 0.427831 1.000000
vt 0.125000 0.578454
vt 0.548435 0.899517
vt 0.625000 0.921546
vt 0.549034 0.924034
vt 0.546546 1.000000
vt 0.500000 1.000000
vt 0.797835 0.625000
vt 0.774517 0.673435
vt 0.773918 0.625000
vt 0.799034 0.674034
vt 0.796546 0.750000
vt 0.773273 0.750000
vt 0.875000 0.578454
vt 0.822169 0.500000
vt 0.625000 0.947169
vt 0.177831 0.750000
vt 0.500000 0.250000
vt 0.546546 0.250000
vt 0.200966 0.575966
vt 0.226727 0.500000
vt 0.225483 0.576565
vt 0.203454 0.500000
vt 0.125000 0.552831
vt 0.875000 0.625000
vt 0.451565 0.350483
vt 0.500000 0.327165
vt 0.500000 0.351082
vt 0.375000 0.328454
vt 0.450966 0.325966
vt 0.453454 0.250000
vt 0.774517 0.576565
vt 0.796546 0.500000
vt 0.799034 0.575966
vt 0.548435 0.350483
vt 0.549034 0.325966
vt 0.625000 0.328454
vt 0.625000 0.351727
vt 0.598584 0.223584
vt 0.401416 0.276416
vt 0.625000 0.171546
vt 0.549034 0.174034
vt 0.500000 0.172835
vt 0.625000 0.125000
vt 0.547836 0.125000
vt 0.500000 0.125000
vt 0.375000 0.171546
vt 0.450966 0.174034
vt 0.375000 0.125000
vt 0.452165 0.125000
vt 0.546546 0.000000
vt 0.625000 0.078454
vt 0.549034 0.075966
vt 0.500000 0.000000
vt 0.500000 0.077165
vt 0.375000 0.078454
vt 0.453454 0.000000
vt 0.450966 0.075966
vt 0.226727 0.750000
vt 0.625000 0.898273
vt 0.375000 0.351727
vt 0.773273 0.500000
vt 0.547835 0.125000
vt 0.625000 0.375000
vt 0.547835 0.375000
vt 0.500000 0.375000
vt 0.750000 0.500000
vt 0.750000 0.577165
vt 0.750000 0.625000
vt 0.375000 0.375000
vt 0.452165 0.375000
vt 0.250000 0.577165
vt 0.750000 0.750000
vt 0.750000 0.672835
vt 0.625000 0.875000
vt 0.547835 0.875000
vt 0.500000 0.875000
vt 0.375000 0.875000
vt 0.452164 0.875000
vt 0.250000 0.750000
vt 0.250000 0.672835
vt 0.250000 0.500000
vt 0.572169 0.000000
vt 0.375000 0.052831
vt 0.416667 0.375000
vt 0.500000 0.312500
vt 0.282070 0.782070
vt 0.392014 0.765613
vt 0.354713 0.782070
vt 0.375000 0.062500
vt 0.416667 0.125000
vt 0.416667 1.000000
vt 0.375000 1.000000
vt 0.365092 0.562500
vt 0.392015 0.484386
vt 0.410061 0.562500
vt 0.416667 0.312500
vt 0.375000 0.187500
vt 0.416667 0.187500
vt 0.365092 0.687500
vt 0.410061 0.687500
vt 0.354713 0.467930
vt 0.500000 0.484387
vt 0.500000 0.187500
vt 0.583333 0.312500
vt 0.500000 0.687500
vt 0.607985 0.765614
vt 0.500000 0.765614
vt 0.500000 0.562500
vt 0.645287 0.467930
vt 0.500000 0.467930
vt 0.416667 0.875000
vt 0.583333 0.000000
vt 0.500000 0.062500
vt 0.416667 0.625000
vt 0.583333 0.062500
vt 0.500000 0.782070
vt 0.583333 0.875000
vt 0.416667 0.062500
vt 0.416667 0.000000
vt 0.583333 0.625000
vt 0.589939 0.562500
vt 0.607985 0.484387
vt 0.500000 0.625000
vt 0.583333 0.187500
vt 0.583333 0.375000
vt 0.282070 0.467930
vt 0.645287 0.782070
vt 0.375000 0.000000
vt 0.589939 0.687500
vt 0.338022 0.484386
vt 0.375000 0.312500
vt 0.375000 0.625000
vt 0.338022 0.765614
vt 0.583333 0.125000
vt 0.583333 1.000000
s 1
usemtl Grass
f 291/102/216 138/103/216 294/104/216
f 294/104/217 149/105/217 305/106/217
f 138/103/218 142/107/218 294/104/218
f 143/108/219 268/109/219 267/110/219
f 143/108/220 141/111/220 140/112/220
f 268/109/221 138/113/222 266/114/221
f 141/111/223 138/113/223 140/112/223
f 188/115/224 147/116/224 186/116/224
f 149/105/225 195/107/225 184/105/225
f 196/117/226 141/111/226 193/111/226
f 149/105/227 183/118/227 150/118/227
f 269/119/228 143/108/228 267/110/228
f 269/119/229 145/120/229 144/121/229
f 143/108/230 148/122/230 139/123/230
f 145/120/231 148/122/231 144/121/231
f 158/124/232 272/125/232 271/126/232
f 158/124/233 147/116/233 146/127/233
f 272/125/234 145/128/234 270/129/234
f 147/116/235 145/128/235 146/127/235
f 168/130/236 167/131/236 170/130/236
f 148/122/237 188/132/237 187/122/237
f 142/107/238 196/133/238 195/107/238
f 162/134/239 157/135/240 165/135/241
f 305/106/242 150/118/242 302/136/242
f 302/136/243 273/137/243 299/138/243
f 150/118/244 153/139/244 302/136/244
f 181/140/245 150/118/245 183/118/245
f 166/141/246 170/130/247 169/141/248
f 139/123/249 187/122/250 194/123/251
f 139/123/252 193/111/253 141/111/254
f 275/142/255 161/143/255 274/144/255
f 275/142/256 153/145/256 152/146/256
f 161/143/257 151/147/257 162/134/257
f 153/145/258 151/147/258 152/146/258
f 276/148/259 158/124/259 271/126/259
f 276/148/260 160/149/260 159/150/260
f 158/124/261 168/130/261 166/141/261
f 160/149/262 168/130/262 159/150/262
f 161/143/263 278/151/263 274/144/263
f 161/143/264 165/135/264 164/152/264
f 278/151/265 160/153/265 277/154/265
f 165/135/266 160/153/266 164/152/266
f 167/155/267 165/135/267 157/135/267
f 162/134/268 171/147/269 163/134/270
f 151/147/271 181/156/271 171/147/271
f 166/141/272 186/116/273 147/116/274
f 170/157/275 157/135/275 154/158/275
f 154/158/276 163/134/276 178/159/276
f 169/160/277 154/158/277 155/161/277
f 155/161/278 178/159/278 156/162/278
f 171/147/279 183/163/279 175/164/279
f 175/164/280 184/165/280 172/166/280
f 163/134/281 175/164/281 178/159/281
f 178/159/282 172/166/282 156/162/282
f 187/167/283 186/168/283 185/169/283
f 185/169/284 169/160/284 155/161/284
f 194/170/285 185/169/285 190/171/285
f 190/171/286 155/161/286 156/162/286
f 195/172/287 193/173/287 191/174/287
f 191/174/288 194/170/288 190/171/288
f 184/165/289 191/174/289 172/166/289
f 172/166/290 190/171/290 156/162/290
f 252/102/291 201/103/291 253/175/291
f 306/106/292 205/107/292 324/104/292
f 205/107/293 201/103/293 324/104/293
f 255/109/294 206/108/294 254/110/294
f 206/108/295 204/111/295 202/123/295
f 255/109/296 201/113/296 203/112/296
f 201/113/297 204/111/297 203/112/297
f 245/115/298 243/116/298 210/116/298
f 212/105/299 250/107/299 205/107/299
f 251/117/300 248/111/300 204/111/300
f 240/118/301 212/105/301 214/118/301
f 206/108/302 256/119/302 254/110/302
f 256/119/303 208/120/303 257/176/303
f 206/108/304 211/122/304 207/121/304
f 211/122/305 208/120/305 207/121/305
f 259/125/306 222/124/306 258/126/306
f 222/124/307 210/116/307 230/141/307
f 259/125/308 208/128/308 209/127/308
f 208/128/309 210/116/309 209/127/309
f 232/130/310 234/130/310 231/131/310
f 211/122/311 244/122/311 245/132/311
f 205/107/312 250/107/312 251/133/312
f 221/135/313 226/134/314 229/135/315
f 213/136/316 212/105/316 306/106/316
f 313/138/317 217/139/317 213/136/317
f 217/139/318 214/118/319 213/136/320
f 239/140/321 240/118/321 214/118/321
f 230/141/322 234/130/323 232/130/324
f 202/123/325 244/122/326 211/122/327
f 248/111/328 202/123/329 204/111/330
f 225/143/331 262/142/331 261/144/331
f 262/142/332 217/145/333 260/177/332
f 225/143/334 215/147/334 216/146/334
f 215/147/335 217/145/335 216/146/335
f 222/124/336 263/148/336 258/126/336
f 263/148/337 224/149/337 264/178/337
f 222/124/338 232/130/338 223/150/338
f 232/130/339 224/149/339 223/150/339
f 265/151/340 225/143/340 261/144/340
f 225/143/341 229/135/341 226/134/341
f 265/151/342 224/153/342 228/152/342
f 224/153/343 229/135/343 228/152/343
f 231/155/344 221/135/344 229/135/344
f 226/134/345 235/147/346 215/147/347
f 215/147/348 235/147/348 239/156/348
f 243/116/349 230/141/350 210/116/351
f 221/135/352 234/157/352 218/158/352
f 227/134/353 218/158/353 238/159/353
f 218/158/354 233/160/354 219/179/354
f 238/159/355 219/179/355 220/162/355
f 240/163/356 235/147/356 237/164/356
f 241/165/357 237/164/357 236/166/357
f 237/164/358 227/134/358 238/159/358
f 236/166/359 238/159/359 220/162/359
f 243/168/360 244/167/360 242/169/360
f 233/160/361 242/169/361 219/179/361
f 242/169/362 249/170/362 246/171/362
f 219/179/363 246/171/363 220/162/363
f 248/173/364 250/172/364 247/174/364
f 249/170/365 247/174/365 246/171/365
f 247/174/366 241/165/366 236/166/366
f 246/171/367 236/166/367 220/162/367
f 200/180/368 265/151/368 199/181/368
f 199/181/369 261/144/369 197/182/369
f 263/148/370 200/183/370 198/184/370
f 258/126/371 198/184/371 176/185/371
f 262/142/372 189/186/372 192/187/372
f 261/144/373 192/187/373 197/182/373
f 316/188/374 260/137/374 313/138/374
f 180/189/375 259/125/375 179/190/375
f 179/190/376 258/126/376 176/185/376
f 256/119/377 180/191/377 182/192/377
f 254/110/378 182/192/378 177/193/378
f 174/194/379 255/109/379 173/195/379
f 173/195/380 254/110/380 177/193/380
f 252/102/381 174/196/381 317/197/381
f 278/151/382 200/180/382 199/181/382
f 274/144/383 199/181/383 197/182/383
f 200/183/384 276/148/384 198/184/384
f 198/184/385 271/126/385 176/185/385
f 189/186/386 275/142/386 192/187/386
f 192/187/387 274/144/387 197/182/387
f 299/138/388 189/198/388 316/188/388
f 272/125/389 180/189/389 179/190/389
f 271/126/390 179/190/390 176/185/390
f 180/191/391 269/119/391 182/192/391
f 182/192/392 267/110/392 177/193/392
f 268/109/393 174/194/393 173/195/393
f 267/110/394 173/195/394 177/193/394
f 317/197/395 266/175/395 291/102/395
f 291/102/396 266/175/396 138/103/396
f 294/104/397 142/107/397 149/105/397
f 138/103/398 196/133/398 142/107/398
f 143/108/399 140/112/399 268/109/399
f 143/108/400 139/123/400 141/111/400
f 268/109/401 140/112/401 138/113/401
f 141/111/402 196/117/402 138/113/402
f 149/105/403 142/107/403 195/107/403
f 149/105/404 184/105/404 183/118/404
f 269/119/405 144/121/405 143/108/405
f 269/119/406 270/176/406 145/120/406
f 143/108/407 144/121/407 148/122/407
f 145/120/408 188/132/408 148/122/408
f 158/124/409 146/127/409 272/125/409
f 158/124/410 166/141/410 147/116/410
f 272/125/411 146/127/411 145/128/411
f 147/116/412 188/115/412 145/128/412
f 162/134/239 163/134/413 157/135/240
f 305/106/414 149/105/414 150/118/414
f 302/136/415 153/139/415 273/137/415
f 150/118/416 181/140/416 153/139/416
f 166/141/246 168/130/417 170/130/247
f 139/123/249 148/122/418 187/122/250
f 139/123/252 194/123/419 193/111/253
f 275/142/420 152/146/420 161/143/420
f 275/142/421 273/177/421 153/145/422
f 161/143/423 152/146/423 151/147/423
f 153/145/424 181/156/424 151/147/424
f 276/148/425 159/150/425 158/124/425
f 276/148/426 277/178/426 160/149/426
f 158/124/427 159/150/427 168/130/427
f 160/149/428 167/131/428 168/130/428
f 161/143/429 164/152/429 278/151/429
f 161/143/430 162/134/430 165/135/430
f 278/151/431 164/152/431 160/153/431
f 165/135/432 167/155/432 160/153/432
f 162/134/268 151/147/433 171/147/269
f 166/141/272 169/141/434 186/116/273
f 170/157/435 167/155/435 157/135/435
f 154/158/436 157/135/436 163/134/436
f 169/160/437 170/157/437 154/158/437
f 155/161/438 154/158/438 178/159/438
f 171/147/439 181/156/439 183/163/439
f 175/164/440 183/163/440 184/165/440
f 163/134/441 171/147/441 175/164/441
f 178/159/442 175/164/442 172/166/442
f 187/167/443 188/199/443 186/168/443
f 185/169/444 186/168/444 169/160/444
f 194/170/445 187/167/445 185/169/445
f 190/171/446 185/169/446 155/161/446
f 195/172/447 196/200/447 193/173/447
f 191/174/448 193/173/448 194/170/448
f 184/165/449 195/172/449 191/174/449
f 172/166/450 191/174/450 190/171/450
f 252/102/451 324/104/451 201/103/451
f 306/106/452 212/105/452 205/107/452
f 205/107/453 251/133/453 201/103/453
f 255/109/454 203/112/454 206/108/454
f 206/108/455 203/112/455 204/111/455
f 255/109/456 253/114/456 201/113/457
f 201/113/458 251/117/458 204/111/458
f 212/105/459 241/105/459 250/107/459
f 240/118/460 241/105/460 212/105/460
f 206/108/461 207/121/461 256/119/461
f 256/119/462 207/121/462 208/120/462
f 206/108/463 202/123/463 211/122/463
f 211/122/464 245/132/464 208/120/464
f 259/125/465 209/127/465 222/124/465
f 222/124/466 209/127/466 210/116/466
f 259/125/467 257/129/467 208/128/467
f 208/128/468 245/115/468 210/116/468
f 221/135/313 227/134/469 226/134/314
f 213/136/320 214/118/319 212/105/470
f 313/138/471 260/137/471 217/139/471
f 217/139/472 239/140/472 214/118/472
f 230/141/322 233/141/473 234/130/323
f 202/123/325 249/123/474 244/122/326
f 248/111/328 249/123/475 202/123/329
f 225/143/476 216/146/476 262/142/476
f 262/142/477 216/146/477 217/145/477
f 225/143/478 226/134/478 215/147/478
f 215/147/479 239/156/479 217/145/479
f 222/124/480 223/150/480 263/148/480
f 263/148/481 223/150/481 224/149/481
f 222/124/482 230/141/482 232/130/482
f 232/130/483 231/131/483 224/149/483
f 265/151/484 228/152/484 225/143/484
f 225/143/485 228/152/485 229/135/485
f 265/151/486 264/154/486 224/153/486
f 224/153/487 231/155/487 229/135/487
f 226/134/345 227/134/488 235/147/346
f 243/116/349 233/141/489 230/141/350
f 221/135/490 231/155/490 234/157/490
f 227/134/491 221/135/491 218/158/491
f 218/158/492 234/157/492 233/160/492
f 238/159/493 218/158/493 219/179/493
f 240/163/494 239/156/494 235/147/494
f 241/165/495 240/163/495 237/164/495
f 237/164/496 235/147/496 227/134/496
f 236/166/497 237/164/497 238/159/497
f 243/168/498 245/199/498 244/167/498
f 233/160/499 243/168/499 242/169/499
f 242/169/500 244/167/500 249/170/500
f 219/179/501 242/169/501 246/171/501
f 248/173/502 251/200/502 250/172/502
f 249/170/503 248/173/503 247/174/503
f 247/174/504 250/172/504 241/165/504
f 246/171/505 247/174/505 236/166/505
f 200/180/486 264/154/486 265/151/486
f 199/181/506 265/151/506 261/144/506
f 263/148/337 264/178/337 200/183/337
f 258/126/507 263/148/507 198/184/507
f 262/142/332 260/177/332 189/186/332
f 261/144/508 262/142/508 192/187/508
f 316/188/509 189/198/509 260/137/509
f 180/189/467 257/129/467 259/125/467
f 179/190/510 259/125/510 258/126/510
f 256/119/303 257/176/303 180/191/303
f 254/110/511 256/119/511 182/192/511
f 174/194/456 253/114/456 255/109/456
f 173/195/512 255/109/512 254/110/512
f 252/102/291 253/175/291 174/196/291
f 278/151/265 277/154/265 200/180/265
f 274/144/513 278/151/513 199/181/513
f 200/183/426 277/178/426 276/148/426
f 198/184/514 276/148/514 271/126/514
f 189/186/421 273/177/421 275/142/421
f 192/187/515 275/142/515 274/144/515
f 299/138/516 273/137/516 189/198/516
f 272/125/234 270/129/234 180/189/234
f 271/126/517 272/125/517 179/190/517
f 180/191/406 270/176/406 269/119/406
f 182/192/518 269/119/518 267/110/518
f 268/109/221 266/114/221 174/194/221
f 267/110/519 268/109/519 173/195/519
f 317/197/520 174/196/520 266/175/520
usemtl Door
f 314/201/521 298/202/521 315/182/521
f 284/203/522 320/204/522 319/205/522
f 280/206/523 303/207/523 281/165/523
f 284/194/524 293/208/524 279/209/524
f 290/210/525 311/211/525 309/212/525
f 297/213/526 282/214/526 300/215/526
f 287/186/527 297/213/527 314/201/527
f 320/204/528 285/216/528 322/217/528
f 314/218/529 312/219/529 311/211/529
f 301/220/530 299/221/531 298/202/532
f 300/215/533 304/162/533 301/220/533
f 323/222/534 252/223/534 321/224/534
f 297/213/535 301/220/535 298/202/535
f 309/212/536 312/219/536 310/225/536
f 316/226/537 312/219/538 315/227/539
f 292/123/540 319/228/540 318/193/540
f 291/229/541 295/230/541 292/170/541
f 285/216/542 308/231/542 322/217/542
f 294/232/543 304/162/544 295/230/545
f 319/205/546 321/224/546 318/233/546
f 317/234/547 292/123/548 318/193/549
f 292/170/550 296/235/550 293/236/550
f 306/237/551 310/225/551 213/238/551
f 304/162/552 296/235/552 295/230/552
f 313/239/553 310/225/553 312/219/553
f 308/231/554 290/210/554 309/212/554
f 282/214/555 303/207/555 300/215/555
f 322/217/556 307/240/556 323/222/556
f 304/162/557 302/241/558 301/220/559
f 307/240/560 309/212/560 310/225/560
f 322/217/561 321/224/561 320/204/561
f 298/202/562 316/242/563 315/182/564
f 311/211/565 287/243/565 314/218/565
f 318/233/566 252/223/566 317/244/566
f 293/236/567 280/206/567 279/245/567
f 307/240/568 324/246/569 323/222/570
f 290/210/571 289/247/571 311/211/571
f 297/213/572 283/248/572 282/214/572
f 300/215/573 303/207/573 304/162/573
f 297/213/574 300/215/574 301/220/574
f 309/212/575 311/211/575 312/219/575
f 308/231/576 288/249/576 290/210/576
f 282/214/577 281/165/577 303/207/577
f 307/240/578 308/231/578 309/212/578
f 314/201/579 297/213/579 298/202/579
f 284/203/580 286/250/580 320/204/580
f 280/206/581 296/235/581 303/207/581
f 284/194/582 319/228/582 293/208/582
f 287/186/583 283/248/583 297/213/583
f 320/204/584 286/250/584 285/216/584
f 314/218/585 315/227/585 312/219/585
f 301/220/530 302/241/586 299/221/531
f 323/222/587 324/246/587 252/223/587
f 316/226/537 313/239/588 312/219/538
f 292/123/589 293/208/589 319/228/589
f 291/229/541 294/232/590 295/230/541
f 285/216/591 288/249/591 308/231/591
f 294/232/543 305/251/592 304/162/544
f 319/205/593 320/204/593 321/224/593
f 317/234/547 291/252/594 292/123/548
f 292/170/595 295/230/595 296/235/595
f 306/237/596 307/240/596 310/225/596
f 304/162/597 303/207/597 296/235/597
f 313/239/598 213/238/598 310/225/598
f 322/217/599 308/231/599 307/240/599
f 304/162/557 305/251/600 302/241/558
f 322/217/601 323/222/601 321/224/601
f 298/202/562 299/221/602 316/242/563
f 311/211/603 289/247/603 287/243/603
f 318/233/604 321/224/604 252/223/604
f 293/236/605 296/235/605 280/206/605
f 307/240/568 306/237/606 324/246/569
